<svg width="48" height="49" viewBox="0 0 48 49" fill="none" xmlns="http://www.w3.org/2000/svg">
<rect y="0.5" width="48" height="48" rx="15" fill="#073D71" fill-opacity="0.15"/>
<path d="M16.5 17.2004C16.5 16.4824 17.0821 15.9004 17.8 15.9004H34.7C35.4179 15.9004 36 16.4824 36 17.2004C36 17.9183 35.4179 18.5004 34.7 18.5004H17.8C17.0821 18.5004 16.5 17.9183 16.5 17.2004ZM34.7 23.7004H11.3C10.5821 23.7004 10 24.2825 10 25.0004C10 25.7183 10.5821 26.3004 11.3 26.3004H34.7C35.4179 26.3004 36 25.7183 36 25.0004C36 24.2825 35.4179 23.7004 34.7 23.7004ZM34.7 31.5004H23C22.2821 31.5004 21.7 32.0824 21.7 32.8004C21.7 33.5183 22.2821 34.1004 23 34.1004H34.7C35.4179 34.1004 36 33.5183 36 32.8004C36 32.0824 35.4179 31.5004 34.7 31.5004Z" fill="black"/>
</svg>
